<mxfile host="app.diagrams.net" agent="Mozilla/5.0 (X11; Linux x86_64) AppleWebKit/537.36 (KHTML, like Gecko) Chrome/131.0.0.0 Safari/537.36" version="25.0.3">
  <diagram name="Page-1" id="AT1ZNtS4TTIYBqAb4Fj_">
    <mxGraphModel dx="1600" dy="1965" grid="1" gridSize="10" guides="1" tooltips="1" connect="1" arrows="1" fold="1" page="1" pageScale="1" pageWidth="850" pageHeight="1100" math="0" shadow="0">
      <root>
        <mxCell id="0" />
        <mxCell id="1" parent="0" />
        <mxCell id="EOrD5ygmVr6pdDx3qJXF-2" value="" style="rounded=0;whiteSpace=wrap;html=1;" parent="1" vertex="1">
          <mxGeometry x="85" y="123" width="680" height="410" as="geometry" />
        </mxCell>
        <mxCell id="EOrD5ygmVr6pdDx3qJXF-3" value="" style="rounded=0;whiteSpace=wrap;html=1;fillColor=#cccccc;" parent="1" vertex="1">
          <mxGeometry x="85" y="503" width="680" height="30" as="geometry" />
        </mxCell>
        <mxCell id="EOrD5ygmVr6pdDx3qJXF-4" value="" style="rounded=0;whiteSpace=wrap;html=1;fillStyle=solid;fillColor=#2B2B2B;" parent="1" vertex="1">
          <mxGeometry x="85" y="62" width="680" height="30" as="geometry" />
        </mxCell>
        <mxCell id="EOrD5ygmVr6pdDx3qJXF-5" value="" style="rounded=0;whiteSpace=wrap;html=1;fillColor=#CCCCCC;" parent="1" vertex="1">
          <mxGeometry x="85" y="93" width="680" height="30" as="geometry" />
        </mxCell>
        <mxCell id="EOrD5ygmVr6pdDx3qJXF-6" value="Arquivo" style="text;html=1;align=left;verticalAlign=middle;whiteSpace=wrap;rounded=0;" parent="1" vertex="1">
          <mxGeometry x="106" y="93" width="60" height="30" as="geometry" />
        </mxCell>
        <mxCell id="EOrD5ygmVr6pdDx3qJXF-7" value="Desfazer" style="text;html=1;align=left;verticalAlign=middle;whiteSpace=wrap;rounded=0;" parent="1" vertex="1">
          <mxGeometry x="241" y="93" width="60" height="30" as="geometry" />
        </mxCell>
        <mxCell id="EOrD5ygmVr6pdDx3qJXF-8" value="Refazer" style="text;html=1;align=left;verticalAlign=middle;whiteSpace=wrap;rounded=0;" parent="1" vertex="1">
          <mxGeometry x="316" y="93" width="60" height="30" as="geometry" />
        </mxCell>
        <mxCell id="EOrD5ygmVr6pdDx3qJXF-38" value="&lt;h1 style=&quot;margin-top: 0px;&quot;&gt;&lt;p style=&quot;margin: 0px 0px 15px; padding: 0px; text-align: justify; font-family: &amp;quot;Open Sans&amp;quot;, Arial, sans-serif; font-weight: 400; background-color: rgb(255, 255, 255);&quot;&gt;Lorem ipsum dolor sit amet, consectetur adipiscing elit. Aenean magna metus, placerat sed risus a, euismod hendrerit nisi. Aliquam dictum id tellus sed feugiat. Duis ultricies nulla id convallis molestie. Donec blandit nibh vitae arcu mattis, nec consectetur felis cursus. Mauris vehicula diam lacinia, dictum mauris vel, pharetra eros. Nullam pretium tristique nunc non sodales. Nullam scelerisque rutrum ipsum non pharetra. Fusce dignissim augue et mi molestie, et mattis lacus dapibus.&lt;/p&gt;&lt;p style=&quot;margin: 0px 0px 15px; padding: 0px; text-align: justify; font-family: &amp;quot;Open Sans&amp;quot;, Arial, sans-serif; font-weight: 400; background-color: rgb(255, 255, 255);&quot;&gt;Donec malesuada porttitor nulla, eget luctus lacus dignissim a. Curabitur ut arcu ac ex interdum mollis. Aliquam vestibulum pharetra libero a semper. Praesent malesuada dignissim euismod.&lt;/p&gt;&lt;p style=&quot;margin: 0px 0px 15px; padding: 0px; text-align: justify; font-family: &amp;quot;Open Sans&amp;quot;, Arial, sans-serif; font-weight: 400; background-color: rgb(255, 255, 255);&quot;&gt;Proin pretium nisl vel ante fringilla ornare. Vestibulum eu iaculis mi, et euismod lectus. Phasellus nisl erat, dictum sit amet volutpat in, convallis nec orci. Phasellus velit risus, elementum non erat id, eleifend porttitor dolor. Proin porta risus nec mi scelerisque, ac dignissim nunc mattis.&lt;/p&gt;&lt;/h1&gt;" style="text;html=1;whiteSpace=wrap;overflow=hidden;rounded=0;fontSize=8;" parent="1" vertex="1">
          <mxGeometry x="110" y="152" width="630" height="327" as="geometry" />
        </mxCell>
        <mxCell id="EOrD5ygmVr6pdDx3qJXF-15" value="" style="rounded=1;whiteSpace=wrap;html=1;" parent="1" vertex="1">
          <mxGeometry x="656" y="513" width="80" height="10" as="geometry" />
        </mxCell>
        <mxCell id="EOrD5ygmVr6pdDx3qJXF-16" value="" style="ellipse;whiteSpace=wrap;html=1;fillColor=#CCCCCC;" parent="1" vertex="1">
          <mxGeometry x="676" y="513" width="10" height="10" as="geometry" />
        </mxCell>
        <mxCell id="EOrD5ygmVr6pdDx3qJXF-17" value="" style="html=1;whiteSpace=wrap;aspect=fixed;shape=isoRectangle;fillColor=none;strokeColor=#D1D1D1;" parent="1" vertex="1">
          <mxGeometry x="650" y="71" width="20" height="12" as="geometry" />
        </mxCell>
        <mxCell id="EOrD5ygmVr6pdDx3qJXF-18" value="" style="html=1;whiteSpace=wrap;aspect=fixed;shape=isoRectangle;fillColor=none;strokeColor=#D1D1D1;" parent="1" vertex="1">
          <mxGeometry x="690" y="71" width="20" height="12" as="geometry" />
        </mxCell>
        <mxCell id="EOrD5ygmVr6pdDx3qJXF-19" value="" style="html=1;whiteSpace=wrap;aspect=fixed;shape=isoRectangle;fillColor=none;strokeColor=#D1D1D1;" parent="1" vertex="1">
          <mxGeometry x="730" y="71" width="20" height="12" as="geometry" />
        </mxCell>
        <mxCell id="EOrD5ygmVr6pdDx3qJXF-20" value="Salvar" style="text;html=1;align=left;verticalAlign=middle;whiteSpace=wrap;rounded=0;" parent="1" vertex="1">
          <mxGeometry x="172" y="93" width="60" height="30" as="geometry" />
        </mxCell>
        <mxCell id="EOrD5ygmVr6pdDx3qJXF-23" value="100%" style="text;html=1;align=left;verticalAlign=middle;whiteSpace=wrap;rounded=0;" parent="1" vertex="1">
          <mxGeometry x="601" y="503" width="30" height="30" as="geometry" />
        </mxCell>
        <mxCell id="EOrD5ygmVr6pdDx3qJXF-24" value="-" style="text;html=1;align=left;verticalAlign=middle;whiteSpace=wrap;rounded=0;" parent="1" vertex="1">
          <mxGeometry x="641" y="503" width="10" height="30" as="geometry" />
        </mxCell>
        <mxCell id="EOrD5ygmVr6pdDx3qJXF-25" value="+" style="text;html=1;align=left;verticalAlign=middle;whiteSpace=wrap;rounded=0;" parent="1" vertex="1">
          <mxGeometry x="741" y="503" width="10" height="30" as="geometry" />
        </mxCell>
        <mxCell id="EOrD5ygmVr6pdDx3qJXF-26" value="Pesquisar" style="text;html=1;align=left;verticalAlign=middle;whiteSpace=wrap;rounded=0;" parent="1" vertex="1">
          <mxGeometry x="386" y="93" width="60" height="30" as="geometry" />
        </mxCell>
        <mxCell id="EOrD5ygmVr6pdDx3qJXF-39" value="" style="group" parent="1" vertex="1" connectable="0">
          <mxGeometry x="280" y="237" width="260" height="130" as="geometry" />
        </mxCell>
        <mxCell id="EOrD5ygmVr6pdDx3qJXF-28" value="" style="shape=ext;double=1;rounded=1;whiteSpace=wrap;html=1;fillColor=#CCCCCC;strokeColor=none;" parent="EOrD5ygmVr6pdDx3qJXF-39" vertex="1">
          <mxGeometry width="260" height="130" as="geometry" />
        </mxCell>
        <mxCell id="EOrD5ygmVr6pdDx3qJXF-29" value="" style="rounded=0;whiteSpace=wrap;html=1;" parent="EOrD5ygmVr6pdDx3qJXF-39" vertex="1">
          <mxGeometry x="25" y="42.5" width="205" height="25" as="geometry" />
        </mxCell>
        <mxCell id="EOrD5ygmVr6pdDx3qJXF-30" value="Cancelar" style="text;html=1;align=left;verticalAlign=middle;whiteSpace=wrap;rounded=0;" parent="EOrD5ygmVr6pdDx3qJXF-39" vertex="1">
          <mxGeometry x="38.75" y="87" width="60" height="30" as="geometry" />
        </mxCell>
        <mxCell id="EOrD5ygmVr6pdDx3qJXF-31" value="Pesquisar" style="text;html=1;align=left;verticalAlign=middle;whiteSpace=wrap;rounded=0;" parent="EOrD5ygmVr6pdDx3qJXF-39" vertex="1">
          <mxGeometry x="156.25" y="87" width="60" height="30" as="geometry" />
        </mxCell>
        <mxCell id="EOrD5ygmVr6pdDx3qJXF-32" value="lacinia" style="text;html=1;align=left;verticalAlign=middle;whiteSpace=wrap;rounded=0;" parent="EOrD5ygmVr6pdDx3qJXF-39" vertex="1">
          <mxGeometry x="30" y="40" width="170" height="30" as="geometry" />
        </mxCell>
        <mxCell id="EOrD5ygmVr6pdDx3qJXF-33" value="" style="rounded=1;whiteSpace=wrap;html=1;fillColor=none;" parent="EOrD5ygmVr6pdDx3qJXF-39" vertex="1">
          <mxGeometry x="25" y="89" width="87.5" height="25" as="geometry" />
        </mxCell>
        <mxCell id="EOrD5ygmVr6pdDx3qJXF-34" value="" style="rounded=1;whiteSpace=wrap;html=1;fillColor=none;" parent="EOrD5ygmVr6pdDx3qJXF-39" vertex="1">
          <mxGeometry x="142.5" y="89" width="87.5" height="25" as="geometry" />
        </mxCell>
        <mxCell id="EOrD5ygmVr6pdDx3qJXF-35" value="Pesquisar correspondências" style="text;html=1;align=center;verticalAlign=middle;whiteSpace=wrap;rounded=0;" parent="EOrD5ygmVr6pdDx3qJXF-39" vertex="1">
          <mxGeometry x="25" y="6" width="162.5" height="30" as="geometry" />
        </mxCell>
        <mxCell id="EOrD5ygmVr6pdDx3qJXF-107" value="" style="group" parent="1" vertex="1" connectable="0">
          <mxGeometry x="265" y="503" width="250" height="30" as="geometry" />
        </mxCell>
        <mxCell id="EOrD5ygmVr6pdDx3qJXF-108" value="Correspondências: 0" style="text;html=1;align=left;verticalAlign=middle;rounded=0;fontColor=#444444;" parent="EOrD5ygmVr6pdDx3qJXF-107" vertex="1">
          <mxGeometry width="120" height="30" as="geometry" />
        </mxCell>
        <mxCell id="EOrD5ygmVr6pdDx3qJXF-109" value="Anterior" style="text;html=1;align=left;verticalAlign=middle;whiteSpace=wrap;rounded=0;fontColor=#444444;" parent="EOrD5ygmVr6pdDx3qJXF-107" vertex="1">
          <mxGeometry x="127" width="60" height="30" as="geometry" />
        </mxCell>
        <mxCell id="EOrD5ygmVr6pdDx3qJXF-110" value="Próxima" style="text;html=1;align=left;verticalAlign=middle;whiteSpace=wrap;rounded=0;fontColor=#444444;" parent="EOrD5ygmVr6pdDx3qJXF-107" vertex="1">
          <mxGeometry x="190" width="60" height="30" as="geometry" />
        </mxCell>
        <mxCell id="EOrD5ygmVr6pdDx3qJXF-119" value="" style="group" parent="1" vertex="1" connectable="0">
          <mxGeometry x="105" y="503" width="149" height="30" as="geometry" />
        </mxCell>
        <mxCell id="EOrD5ygmVr6pdDx3qJXF-120" value="Linhas: 15" style="text;html=1;align=left;verticalAlign=middle;whiteSpace=wrap;rounded=0;" parent="EOrD5ygmVr6pdDx3qJXF-119" vertex="1">
          <mxGeometry width="60" height="30" as="geometry" />
        </mxCell>
        <mxCell id="EOrD5ygmVr6pdDx3qJXF-121" value="Palavras: 122" style="text;html=1;align=left;verticalAlign=middle;whiteSpace=wrap;rounded=0;" parent="EOrD5ygmVr6pdDx3qJXF-119" vertex="1">
          <mxGeometry x="69" width="80" height="30" as="geometry" />
        </mxCell>
        <mxCell id="EOrD5ygmVr6pdDx3qJXF-126" value="Tela Inicial" style="text;html=1;align=left;verticalAlign=middle;whiteSpace=wrap;rounded=0;fontSize=16;fontStyle=1" parent="1" vertex="1">
          <mxGeometry x="84" y="-1080" width="89" height="30" as="geometry" />
        </mxCell>
        <mxCell id="EOrD5ygmVr6pdDx3qJXF-127" value="Menu Arquivo" style="text;html=1;align=left;verticalAlign=middle;whiteSpace=wrap;rounded=0;fontSize=16;fontStyle=1" parent="1" vertex="1">
          <mxGeometry x="86" y="-540" width="130" height="30" as="geometry" />
        </mxCell>
        <mxCell id="EOrD5ygmVr6pdDx3qJXF-128" value="Popup Pesquisa" style="text;html=1;align=left;verticalAlign=middle;whiteSpace=wrap;rounded=0;fontSize=16;fontStyle=1" parent="1" vertex="1">
          <mxGeometry x="85" y="30" width="130" height="30" as="geometry" />
        </mxCell>
        <mxCell id="EOrD5ygmVr6pdDx3qJXF-129" value="Resultado Pesquisa" style="text;html=1;align=left;verticalAlign=middle;whiteSpace=wrap;rounded=0;fontSize=16;fontStyle=1" parent="1" vertex="1">
          <mxGeometry x="85" y="560" width="170" height="30" as="geometry" />
        </mxCell>
        <mxCell id="EOrD5ygmVr6pdDx3qJXF-130" value="" style="group;shadow=1;textShadow=0;" parent="1" vertex="1" connectable="0">
          <mxGeometry x="80" y="1400" width="260" height="130" as="geometry" />
        </mxCell>
        <mxCell id="EOrD5ygmVr6pdDx3qJXF-131" value="" style="shape=ext;double=1;rounded=1;whiteSpace=wrap;html=1;fillColor=#CCCCCC;strokeColor=none;" parent="EOrD5ygmVr6pdDx3qJXF-130" vertex="1">
          <mxGeometry width="260" height="130" as="geometry" />
        </mxCell>
        <mxCell id="EOrD5ygmVr6pdDx3qJXF-138" value="Nada foi encontrado!" style="text;html=1;align=center;verticalAlign=middle;whiteSpace=wrap;rounded=0;fontStyle=1" parent="EOrD5ygmVr6pdDx3qJXF-130" vertex="1">
          <mxGeometry x="48.75" y="10" width="162.5" height="30" as="geometry" />
        </mxCell>
        <mxCell id="EOrD5ygmVr6pdDx3qJXF-133" value="Sair" style="text;html=1;align=center;verticalAlign=middle;whiteSpace=wrap;rounded=0;" parent="EOrD5ygmVr6pdDx3qJXF-130" vertex="1">
          <mxGeometry x="100" y="87" width="60" height="30" as="geometry" />
        </mxCell>
        <mxCell id="EOrD5ygmVr6pdDx3qJXF-136" value="" style="rounded=1;whiteSpace=wrap;html=1;fillColor=none;" parent="EOrD5ygmVr6pdDx3qJXF-130" vertex="1">
          <mxGeometry x="100" y="87" width="60" height="25" as="geometry" />
        </mxCell>
        <mxCell id="EOrD5ygmVr6pdDx3qJXF-140" value="O documento não possui o termo de pesquisa submetido." style="text;html=1;align=center;verticalAlign=middle;whiteSpace=wrap;rounded=0;" parent="EOrD5ygmVr6pdDx3qJXF-130" vertex="1">
          <mxGeometry x="27.5" y="40" width="205" height="40" as="geometry" />
        </mxCell>
        <mxCell id="EOrD5ygmVr6pdDx3qJXF-147" value="" style="group" parent="1" vertex="1" connectable="0">
          <mxGeometry x="80" y="1180" width="260" height="130" as="geometry" />
        </mxCell>
        <mxCell id="EOrD5ygmVr6pdDx3qJXF-148" value="" style="shape=ext;double=1;rounded=1;whiteSpace=wrap;html=1;fillColor=#CCCCCC;strokeColor=none;" parent="EOrD5ygmVr6pdDx3qJXF-147" vertex="1">
          <mxGeometry width="260" height="130" as="geometry" />
        </mxCell>
        <mxCell id="EOrD5ygmVr6pdDx3qJXF-149" value="" style="rounded=0;whiteSpace=wrap;html=1;" parent="EOrD5ygmVr6pdDx3qJXF-147" vertex="1">
          <mxGeometry x="25" y="42.5" width="205" height="25" as="geometry" />
        </mxCell>
        <mxCell id="EOrD5ygmVr6pdDx3qJXF-150" value="Cancelar" style="text;html=1;align=left;verticalAlign=middle;whiteSpace=wrap;rounded=0;" parent="EOrD5ygmVr6pdDx3qJXF-147" vertex="1">
          <mxGeometry x="38.75" y="87" width="60" height="30" as="geometry" />
        </mxCell>
        <mxCell id="EOrD5ygmVr6pdDx3qJXF-151" value="Pesquisar" style="text;html=1;align=left;verticalAlign=middle;whiteSpace=wrap;rounded=0;" parent="EOrD5ygmVr6pdDx3qJXF-147" vertex="1">
          <mxGeometry x="156.25" y="87" width="60" height="30" as="geometry" />
        </mxCell>
        <mxCell id="EOrD5ygmVr6pdDx3qJXF-152" value="lacinia" style="text;html=1;align=left;verticalAlign=middle;whiteSpace=wrap;rounded=0;" parent="EOrD5ygmVr6pdDx3qJXF-147" vertex="1">
          <mxGeometry x="30" y="40" width="170" height="30" as="geometry" />
        </mxCell>
        <mxCell id="EOrD5ygmVr6pdDx3qJXF-153" value="" style="rounded=1;whiteSpace=wrap;html=1;fillColor=none;" parent="EOrD5ygmVr6pdDx3qJXF-147" vertex="1">
          <mxGeometry x="25" y="89" width="87.5" height="25" as="geometry" />
        </mxCell>
        <mxCell id="EOrD5ygmVr6pdDx3qJXF-154" value="" style="rounded=1;whiteSpace=wrap;html=1;fillColor=none;" parent="EOrD5ygmVr6pdDx3qJXF-147" vertex="1">
          <mxGeometry x="142.5" y="89" width="87.5" height="25" as="geometry" />
        </mxCell>
        <mxCell id="EOrD5ygmVr6pdDx3qJXF-155" value="Pesquisar correspondências" style="text;html=1;align=center;verticalAlign=middle;whiteSpace=wrap;rounded=0;" parent="EOrD5ygmVr6pdDx3qJXF-147" vertex="1">
          <mxGeometry x="25" y="6" width="162.5" height="30" as="geometry" />
        </mxCell>
        <mxCell id="EOrD5ygmVr6pdDx3qJXF-156" value="Popup Pesquisa" style="text;html=1;align=left;verticalAlign=middle;whiteSpace=wrap;rounded=0;fontSize=16;fontStyle=1" parent="1" vertex="1">
          <mxGeometry x="85" y="1140" width="170" height="30" as="geometry" />
        </mxCell>
        <mxCell id="EOrD5ygmVr6pdDx3qJXF-157" value="Popup Notificação" style="text;html=1;align=left;verticalAlign=middle;whiteSpace=wrap;rounded=0;fontSize=16;fontStyle=1" parent="1" vertex="1">
          <mxGeometry x="85" y="1360" width="170" height="30" as="geometry" />
        </mxCell>
        <mxCell id="TvqE10xnxTfYAV_kvAJu-1" value="" style="group" vertex="1" connectable="0" parent="1">
          <mxGeometry x="86" y="-1047" width="680" height="471" as="geometry" />
        </mxCell>
        <mxCell id="EOrD5ygmVr6pdDx3qJXF-40" value="" style="rounded=0;whiteSpace=wrap;html=1;" parent="TvqE10xnxTfYAV_kvAJu-1" vertex="1">
          <mxGeometry y="61" width="680" height="410" as="geometry" />
        </mxCell>
        <mxCell id="EOrD5ygmVr6pdDx3qJXF-41" value="&lt;h1 style=&quot;margin-top: 0px;&quot;&gt;&lt;p style=&quot;margin: 0px 0px 15px; padding: 0px; text-align: justify; font-family: &amp;quot;Open Sans&amp;quot;, Arial, sans-serif; font-weight: 400; background-color: rgb(255, 255, 255);&quot;&gt;Lorem ipsum dolor sit amet, consectetur adipiscing elit. Aenean magna metus, placerat sed risus a, euismod hendrerit nisi. Aliquam dictum id tellus sed feugiat. Duis ultricies nulla id convallis molestie. Donec blandit nibh vitae arcu mattis, nec consectetur felis cursus. Mauris vehicula diam lacinia, dictum mauris vel, pharetra eros. Nullam pretium tristique nunc non sodales. Nullam scelerisque rutrum ipsum non pharetra. Fusce dignissim augue et mi molestie, et mattis lacus dapibus.&lt;/p&gt;&lt;p style=&quot;margin: 0px 0px 15px; padding: 0px; text-align: justify; font-family: &amp;quot;Open Sans&amp;quot;, Arial, sans-serif; font-weight: 400; background-color: rgb(255, 255, 255);&quot;&gt;Donec malesuada porttitor nulla, eget luctus lacus dignissim a. Curabitur ut arcu ac ex interdum mollis. Aliquam vestibulum pharetra libero a semper. Praesent malesuada dignissim euismod. Proin pretium nisl vel ante fringilla ornare. Vestibulum eu iaculis mi, et euismod lectus. Phasellus nisl erat, dictum sit amet volutpat in, convallis nec orci. Phasellus velit risus, elementum non erat id, eleifend porttitor dolor. Proin porta risus nec mi scelerisque, ac dignissim nunc mattis. Curabitur non ultricies nisl. Aenean vestibulum tortor at ipsum sollicitudin tincidunt.&lt;/p&gt;&lt;/h1&gt;" style="text;html=1;whiteSpace=wrap;overflow=hidden;rounded=0;fontSize=8;" parent="TvqE10xnxTfYAV_kvAJu-1" vertex="1">
          <mxGeometry x="25" y="92" width="630" height="327" as="geometry" />
        </mxCell>
        <mxCell id="EOrD5ygmVr6pdDx3qJXF-42" value="" style="rounded=0;whiteSpace=wrap;html=1;fillColor=#cccccc;" parent="TvqE10xnxTfYAV_kvAJu-1" vertex="1">
          <mxGeometry y="441" width="680" height="30" as="geometry" />
        </mxCell>
        <mxCell id="EOrD5ygmVr6pdDx3qJXF-43" value="" style="rounded=0;whiteSpace=wrap;html=1;fillStyle=solid;fillColor=#2B2B2B;" parent="TvqE10xnxTfYAV_kvAJu-1" vertex="1">
          <mxGeometry width="680" height="30" as="geometry" />
        </mxCell>
        <mxCell id="EOrD5ygmVr6pdDx3qJXF-44" value="" style="rounded=0;whiteSpace=wrap;html=1;fillColor=#CCCCCC;" parent="TvqE10xnxTfYAV_kvAJu-1" vertex="1">
          <mxGeometry y="31" width="680" height="30" as="geometry" />
        </mxCell>
        <mxCell id="EOrD5ygmVr6pdDx3qJXF-45" value="Arquivo" style="text;html=1;align=left;verticalAlign=middle;whiteSpace=wrap;rounded=0;" parent="TvqE10xnxTfYAV_kvAJu-1" vertex="1">
          <mxGeometry x="21" y="31" width="60" height="30" as="geometry" />
        </mxCell>
        <mxCell id="EOrD5ygmVr6pdDx3qJXF-46" value="Desfazer" style="text;html=1;align=left;verticalAlign=middle;whiteSpace=wrap;rounded=0;" parent="TvqE10xnxTfYAV_kvAJu-1" vertex="1">
          <mxGeometry x="156" y="31" width="60" height="30" as="geometry" />
        </mxCell>
        <mxCell id="EOrD5ygmVr6pdDx3qJXF-47" value="Refazer" style="text;html=1;align=left;verticalAlign=middle;whiteSpace=wrap;rounded=0;fontColor=#444444;" parent="TvqE10xnxTfYAV_kvAJu-1" vertex="1">
          <mxGeometry x="231" y="31" width="60" height="30" as="geometry" />
        </mxCell>
        <mxCell id="EOrD5ygmVr6pdDx3qJXF-54" value="" style="rounded=1;whiteSpace=wrap;html=1;" parent="TvqE10xnxTfYAV_kvAJu-1" vertex="1">
          <mxGeometry x="571" y="451" width="80" height="10" as="geometry" />
        </mxCell>
        <mxCell id="EOrD5ygmVr6pdDx3qJXF-55" value="" style="ellipse;whiteSpace=wrap;html=1;fillColor=#CCCCCC;" parent="TvqE10xnxTfYAV_kvAJu-1" vertex="1">
          <mxGeometry x="591" y="451" width="10" height="10" as="geometry" />
        </mxCell>
        <mxCell id="EOrD5ygmVr6pdDx3qJXF-56" value="" style="html=1;whiteSpace=wrap;aspect=fixed;shape=isoRectangle;fillColor=none;strokeColor=#D1D1D1;" parent="TvqE10xnxTfYAV_kvAJu-1" vertex="1">
          <mxGeometry x="565" y="9" width="20" height="12" as="geometry" />
        </mxCell>
        <mxCell id="EOrD5ygmVr6pdDx3qJXF-57" value="" style="html=1;whiteSpace=wrap;aspect=fixed;shape=isoRectangle;fillColor=none;strokeColor=#D1D1D1;" parent="TvqE10xnxTfYAV_kvAJu-1" vertex="1">
          <mxGeometry x="605" y="9" width="20" height="12" as="geometry" />
        </mxCell>
        <mxCell id="EOrD5ygmVr6pdDx3qJXF-58" value="" style="html=1;whiteSpace=wrap;aspect=fixed;shape=isoRectangle;fillColor=none;strokeColor=#D1D1D1;" parent="TvqE10xnxTfYAV_kvAJu-1" vertex="1">
          <mxGeometry x="645" y="9" width="20" height="12" as="geometry" />
        </mxCell>
        <mxCell id="EOrD5ygmVr6pdDx3qJXF-59" value="Salvar" style="text;html=1;align=left;verticalAlign=middle;whiteSpace=wrap;rounded=0;" parent="TvqE10xnxTfYAV_kvAJu-1" vertex="1">
          <mxGeometry x="87" y="31" width="60" height="30" as="geometry" />
        </mxCell>
        <mxCell id="EOrD5ygmVr6pdDx3qJXF-62" value="100%" style="text;html=1;align=left;verticalAlign=middle;whiteSpace=wrap;rounded=0;" parent="TvqE10xnxTfYAV_kvAJu-1" vertex="1">
          <mxGeometry x="516" y="441" width="30" height="30" as="geometry" />
        </mxCell>
        <mxCell id="EOrD5ygmVr6pdDx3qJXF-63" value="-" style="text;html=1;align=left;verticalAlign=middle;whiteSpace=wrap;rounded=0;" parent="TvqE10xnxTfYAV_kvAJu-1" vertex="1">
          <mxGeometry x="556" y="441" width="10" height="30" as="geometry" />
        </mxCell>
        <mxCell id="EOrD5ygmVr6pdDx3qJXF-64" value="+" style="text;html=1;align=left;verticalAlign=middle;whiteSpace=wrap;rounded=0;" parent="TvqE10xnxTfYAV_kvAJu-1" vertex="1">
          <mxGeometry x="656" y="441" width="10" height="30" as="geometry" />
        </mxCell>
        <mxCell id="EOrD5ygmVr6pdDx3qJXF-65" value="Pesquisar" style="text;html=1;align=left;verticalAlign=middle;whiteSpace=wrap;rounded=0;" parent="TvqE10xnxTfYAV_kvAJu-1" vertex="1">
          <mxGeometry x="301" y="31" width="60" height="30" as="geometry" />
        </mxCell>
        <mxCell id="EOrD5ygmVr6pdDx3qJXF-102" value="" style="group" parent="TvqE10xnxTfYAV_kvAJu-1" vertex="1" connectable="0">
          <mxGeometry x="177" y="441" width="250" height="30" as="geometry" />
        </mxCell>
        <mxCell id="EOrD5ygmVr6pdDx3qJXF-66" value="Correspondências: 0" style="text;html=1;align=left;verticalAlign=middle;rounded=0;fontColor=#444444;" parent="EOrD5ygmVr6pdDx3qJXF-102" vertex="1">
          <mxGeometry width="120" height="30" as="geometry" />
        </mxCell>
        <mxCell id="EOrD5ygmVr6pdDx3qJXF-67" value="Anterior" style="text;html=1;align=left;verticalAlign=middle;whiteSpace=wrap;rounded=0;fontColor=#444444;" parent="EOrD5ygmVr6pdDx3qJXF-102" vertex="1">
          <mxGeometry x="127" width="60" height="30" as="geometry" />
        </mxCell>
        <mxCell id="EOrD5ygmVr6pdDx3qJXF-68" value="Próxima" style="text;html=1;align=left;verticalAlign=middle;whiteSpace=wrap;rounded=0;fontColor=#444444;" parent="EOrD5ygmVr6pdDx3qJXF-102" vertex="1">
          <mxGeometry x="190" width="60" height="30" as="geometry" />
        </mxCell>
        <mxCell id="EOrD5ygmVr6pdDx3qJXF-115" value="" style="group" parent="TvqE10xnxTfYAV_kvAJu-1" vertex="1" connectable="0">
          <mxGeometry x="20" y="441" width="149" height="30" as="geometry" />
        </mxCell>
        <mxCell id="EOrD5ygmVr6pdDx3qJXF-60" value="Linhas: 15" style="text;html=1;align=left;verticalAlign=middle;whiteSpace=wrap;rounded=0;" parent="EOrD5ygmVr6pdDx3qJXF-115" vertex="1">
          <mxGeometry width="60" height="30" as="geometry" />
        </mxCell>
        <mxCell id="EOrD5ygmVr6pdDx3qJXF-61" value="Palavras: 122" style="text;html=1;align=left;verticalAlign=middle;whiteSpace=wrap;rounded=0;" parent="EOrD5ygmVr6pdDx3qJXF-115" vertex="1">
          <mxGeometry x="69" width="80" height="30" as="geometry" />
        </mxCell>
        <mxCell id="TvqE10xnxTfYAV_kvAJu-2" value="" style="group" vertex="1" connectable="0" parent="1">
          <mxGeometry x="86" y="-508" width="680" height="471" as="geometry" />
        </mxCell>
        <mxCell id="0SayLIdgJ1S03iDdEZWp-5" value="" style="rounded=0;whiteSpace=wrap;html=1;" parent="TvqE10xnxTfYAV_kvAJu-2" vertex="1">
          <mxGeometry y="61" width="680" height="410" as="geometry" />
        </mxCell>
        <mxCell id="EOrD5ygmVr6pdDx3qJXF-37" value="&lt;h1 style=&quot;margin-top: 0px;&quot;&gt;&lt;p style=&quot;margin: 0px 0px 15px; padding: 0px; text-align: justify; font-family: &amp;quot;Open Sans&amp;quot;, Arial, sans-serif; font-weight: 400; background-color: rgb(255, 255, 255);&quot;&gt;Lorem ipsum dolor sit amet, consectetur adipiscing elit. Aenean magna metus, placerat sed risus a, euismod hendrerit nisi. Aliquam dictum id tellus sed feugiat. Duis ultricies nulla id convallis molestie. Donec blandit nibh vitae arcu mattis, nec consectetur felis cursus. Mauris vehicula diam lacinia, dictum mauris vel, pharetra eros. Nullam pretium tristique nunc non sodales. Nullam scelerisque rutrum ipsum non pharetra. Fusce dignissim augue et mi molestie, et mattis lacus dapibus.&lt;/p&gt;&lt;p style=&quot;margin: 0px 0px 15px; padding: 0px; text-align: justify; font-family: &amp;quot;Open Sans&amp;quot;, Arial, sans-serif; font-weight: 400; background-color: rgb(255, 255, 255);&quot;&gt;Donec malesuada porttitor nulla, eget luctus lacus dignissim a. Curabitur ut arcu ac ex interdum mollis. Aliquam vestibulum pharetra libero a semper. Praesent malesuada dignissim euismod.&lt;/p&gt;&lt;p style=&quot;margin: 0px 0px 15px; padding: 0px; text-align: justify; font-family: &amp;quot;Open Sans&amp;quot;, Arial, sans-serif; font-weight: 400; background-color: rgb(255, 255, 255);&quot;&gt;Proin pretium nisl vel ante fringilla ornare. Vestibulum eu iaculis mi, et euismod lectus. Phasellus nisl erat, dictum sit amet volutpat in, convallis nec orci. Phasellus velit risus, elementum non erat id, eleifend porttitor dolor. Proin porta risus nec mi scelerisque, ac dignissim nunc mattis.&lt;/p&gt;&lt;/h1&gt;" style="text;html=1;whiteSpace=wrap;overflow=hidden;rounded=0;fontSize=8;" parent="TvqE10xnxTfYAV_kvAJu-2" vertex="1">
          <mxGeometry x="25" y="92" width="630" height="327" as="geometry" />
        </mxCell>
        <mxCell id="0SayLIdgJ1S03iDdEZWp-17" value="" style="rounded=0;whiteSpace=wrap;html=1;fillColor=#cccccc;" parent="TvqE10xnxTfYAV_kvAJu-2" vertex="1">
          <mxGeometry y="441" width="680" height="30" as="geometry" />
        </mxCell>
        <mxCell id="0SayLIdgJ1S03iDdEZWp-1" value="" style="rounded=0;whiteSpace=wrap;html=1;fillStyle=solid;fillColor=#2B2B2B;" parent="TvqE10xnxTfYAV_kvAJu-2" vertex="1">
          <mxGeometry width="680" height="30" as="geometry" />
        </mxCell>
        <mxCell id="0SayLIdgJ1S03iDdEZWp-6" value="" style="rounded=0;whiteSpace=wrap;html=1;fillColor=#CCCCCC;" parent="TvqE10xnxTfYAV_kvAJu-2" vertex="1">
          <mxGeometry y="31" width="680" height="30" as="geometry" />
        </mxCell>
        <mxCell id="0SayLIdgJ1S03iDdEZWp-7" value="Arquivo" style="text;html=1;align=left;verticalAlign=middle;whiteSpace=wrap;rounded=0;" parent="TvqE10xnxTfYAV_kvAJu-2" vertex="1">
          <mxGeometry x="21" y="31" width="60" height="30" as="geometry" />
        </mxCell>
        <mxCell id="0SayLIdgJ1S03iDdEZWp-12" value="Desfazer" style="text;html=1;align=left;verticalAlign=middle;whiteSpace=wrap;rounded=0;" parent="TvqE10xnxTfYAV_kvAJu-2" vertex="1">
          <mxGeometry x="156" y="31" width="60" height="30" as="geometry" />
        </mxCell>
        <mxCell id="0SayLIdgJ1S03iDdEZWp-13" value="Refazer" style="text;html=1;align=left;verticalAlign=middle;whiteSpace=wrap;rounded=0;" parent="TvqE10xnxTfYAV_kvAJu-2" vertex="1">
          <mxGeometry x="231" y="31" width="60" height="30" as="geometry" />
        </mxCell>
        <mxCell id="0SayLIdgJ1S03iDdEZWp-16" value="" style="rounded=0;whiteSpace=wrap;html=1;fillColor=#c3c3c3;strokeColor=default;" parent="TvqE10xnxTfYAV_kvAJu-2" vertex="1">
          <mxGeometry x="1" y="61" width="110" height="180" as="geometry" />
        </mxCell>
        <mxCell id="0SayLIdgJ1S03iDdEZWp-11" value="Salvar como" style="text;html=1;align=left;verticalAlign=middle;whiteSpace=wrap;rounded=0;" parent="TvqE10xnxTfYAV_kvAJu-2" vertex="1">
          <mxGeometry x="21" y="167" width="80" height="30" as="geometry" />
        </mxCell>
        <mxCell id="0SayLIdgJ1S03iDdEZWp-10" value="Salvar" style="text;html=1;align=left;verticalAlign=middle;whiteSpace=wrap;rounded=0;" parent="TvqE10xnxTfYAV_kvAJu-2" vertex="1">
          <mxGeometry x="21" y="132" width="110" height="30" as="geometry" />
        </mxCell>
        <mxCell id="0SayLIdgJ1S03iDdEZWp-9" value="Abrir&amp;nbsp;" style="text;html=1;align=left;verticalAlign=middle;whiteSpace=wrap;rounded=0;" parent="TvqE10xnxTfYAV_kvAJu-2" vertex="1">
          <mxGeometry x="21" y="97" width="100" height="30" as="geometry" />
        </mxCell>
        <mxCell id="0SayLIdgJ1S03iDdEZWp-8" value="Novo" style="text;html=1;align=left;verticalAlign=middle;whiteSpace=wrap;rounded=0;" parent="TvqE10xnxTfYAV_kvAJu-2" vertex="1">
          <mxGeometry x="21" y="62" width="110" height="30" as="geometry" />
        </mxCell>
        <mxCell id="0SayLIdgJ1S03iDdEZWp-19" value="Sair" style="text;html=1;align=left;verticalAlign=middle;whiteSpace=wrap;rounded=0;" parent="TvqE10xnxTfYAV_kvAJu-2" vertex="1">
          <mxGeometry x="21" y="204" width="80" height="30" as="geometry" />
        </mxCell>
        <mxCell id="0SayLIdgJ1S03iDdEZWp-22" value="" style="rounded=1;whiteSpace=wrap;html=1;" parent="TvqE10xnxTfYAV_kvAJu-2" vertex="1">
          <mxGeometry x="571" y="451" width="80" height="10" as="geometry" />
        </mxCell>
        <mxCell id="0SayLIdgJ1S03iDdEZWp-23" value="" style="ellipse;whiteSpace=wrap;html=1;fillColor=#CCCCCC;" parent="TvqE10xnxTfYAV_kvAJu-2" vertex="1">
          <mxGeometry x="591" y="451" width="10" height="10" as="geometry" />
        </mxCell>
        <mxCell id="0SayLIdgJ1S03iDdEZWp-25" value="" style="html=1;whiteSpace=wrap;aspect=fixed;shape=isoRectangle;fillColor=none;strokeColor=#D1D1D1;" parent="TvqE10xnxTfYAV_kvAJu-2" vertex="1">
          <mxGeometry x="565" y="9" width="20" height="12" as="geometry" />
        </mxCell>
        <mxCell id="0SayLIdgJ1S03iDdEZWp-26" value="" style="html=1;whiteSpace=wrap;aspect=fixed;shape=isoRectangle;fillColor=none;strokeColor=#D1D1D1;" parent="TvqE10xnxTfYAV_kvAJu-2" vertex="1">
          <mxGeometry x="605" y="9" width="20" height="12" as="geometry" />
        </mxCell>
        <mxCell id="0SayLIdgJ1S03iDdEZWp-27" value="" style="html=1;whiteSpace=wrap;aspect=fixed;shape=isoRectangle;fillColor=none;strokeColor=#D1D1D1;" parent="TvqE10xnxTfYAV_kvAJu-2" vertex="1">
          <mxGeometry x="645" y="9" width="20" height="12" as="geometry" />
        </mxCell>
        <mxCell id="0SayLIdgJ1S03iDdEZWp-36" value="Salvar" style="text;html=1;align=left;verticalAlign=middle;whiteSpace=wrap;rounded=0;" parent="TvqE10xnxTfYAV_kvAJu-2" vertex="1">
          <mxGeometry x="87" y="31" width="60" height="30" as="geometry" />
        </mxCell>
        <mxCell id="0SayLIdgJ1S03iDdEZWp-34" value="100%" style="text;html=1;align=left;verticalAlign=middle;whiteSpace=wrap;rounded=0;" parent="TvqE10xnxTfYAV_kvAJu-2" vertex="1">
          <mxGeometry x="516" y="441" width="30" height="30" as="geometry" />
        </mxCell>
        <mxCell id="0SayLIdgJ1S03iDdEZWp-39" value="-" style="text;html=1;align=left;verticalAlign=middle;whiteSpace=wrap;rounded=0;" parent="TvqE10xnxTfYAV_kvAJu-2" vertex="1">
          <mxGeometry x="556" y="441" width="10" height="30" as="geometry" />
        </mxCell>
        <mxCell id="0SayLIdgJ1S03iDdEZWp-40" value="+" style="text;html=1;align=left;verticalAlign=middle;whiteSpace=wrap;rounded=0;" parent="TvqE10xnxTfYAV_kvAJu-2" vertex="1">
          <mxGeometry x="656" y="441" width="10" height="30" as="geometry" />
        </mxCell>
        <mxCell id="0SayLIdgJ1S03iDdEZWp-43" value="Pesquisar" style="text;html=1;align=left;verticalAlign=middle;whiteSpace=wrap;rounded=0;" parent="TvqE10xnxTfYAV_kvAJu-2" vertex="1">
          <mxGeometry x="301" y="31" width="60" height="30" as="geometry" />
        </mxCell>
        <mxCell id="EOrD5ygmVr6pdDx3qJXF-103" value="" style="group" parent="TvqE10xnxTfYAV_kvAJu-2" vertex="1" connectable="0">
          <mxGeometry x="183" y="441" width="250" height="30" as="geometry" />
        </mxCell>
        <mxCell id="EOrD5ygmVr6pdDx3qJXF-104" value="Correspondências: 0" style="text;html=1;align=left;verticalAlign=middle;rounded=0;fontColor=#444444;" parent="EOrD5ygmVr6pdDx3qJXF-103" vertex="1">
          <mxGeometry width="120" height="30" as="geometry" />
        </mxCell>
        <mxCell id="EOrD5ygmVr6pdDx3qJXF-105" value="Anterior" style="text;html=1;align=left;verticalAlign=middle;whiteSpace=wrap;rounded=0;fontColor=#444444;" parent="EOrD5ygmVr6pdDx3qJXF-103" vertex="1">
          <mxGeometry x="127" width="60" height="30" as="geometry" />
        </mxCell>
        <mxCell id="EOrD5ygmVr6pdDx3qJXF-106" value="Próxima" style="text;html=1;align=left;verticalAlign=middle;whiteSpace=wrap;rounded=0;fontColor=#444444;" parent="EOrD5ygmVr6pdDx3qJXF-103" vertex="1">
          <mxGeometry x="190" width="60" height="30" as="geometry" />
        </mxCell>
        <mxCell id="EOrD5ygmVr6pdDx3qJXF-116" value="" style="group" parent="TvqE10xnxTfYAV_kvAJu-2" vertex="1" connectable="0">
          <mxGeometry x="20" y="441" width="149" height="30" as="geometry" />
        </mxCell>
        <mxCell id="EOrD5ygmVr6pdDx3qJXF-117" value="Linhas: 15" style="text;html=1;align=left;verticalAlign=middle;whiteSpace=wrap;rounded=0;" parent="EOrD5ygmVr6pdDx3qJXF-116" vertex="1">
          <mxGeometry width="60" height="30" as="geometry" />
        </mxCell>
        <mxCell id="EOrD5ygmVr6pdDx3qJXF-118" value="Palavras: 122" style="text;html=1;align=left;verticalAlign=middle;whiteSpace=wrap;rounded=0;" parent="EOrD5ygmVr6pdDx3qJXF-116" vertex="1">
          <mxGeometry x="69" width="80" height="30" as="geometry" />
        </mxCell>
        <mxCell id="TvqE10xnxTfYAV_kvAJu-3" value="" style="group" vertex="1" connectable="0" parent="1">
          <mxGeometry x="85" y="593" width="680" height="471" as="geometry" />
        </mxCell>
        <mxCell id="EOrD5ygmVr6pdDx3qJXF-78" value="" style="rounded=0;whiteSpace=wrap;html=1;" parent="TvqE10xnxTfYAV_kvAJu-3" vertex="1">
          <mxGeometry y="61" width="680" height="410" as="geometry" />
        </mxCell>
        <mxCell id="EOrD5ygmVr6pdDx3qJXF-80" value="" style="rounded=0;whiteSpace=wrap;html=1;fillColor=#cccccc;" parent="TvqE10xnxTfYAV_kvAJu-3" vertex="1">
          <mxGeometry y="441" width="680" height="30" as="geometry" />
        </mxCell>
        <mxCell id="EOrD5ygmVr6pdDx3qJXF-81" value="" style="rounded=0;whiteSpace=wrap;html=1;fillStyle=solid;fillColor=#2B2B2B;" parent="TvqE10xnxTfYAV_kvAJu-3" vertex="1">
          <mxGeometry width="680" height="30" as="geometry" />
        </mxCell>
        <mxCell id="EOrD5ygmVr6pdDx3qJXF-82" value="" style="rounded=0;whiteSpace=wrap;html=1;fillColor=#CCCCCC;" parent="TvqE10xnxTfYAV_kvAJu-3" vertex="1">
          <mxGeometry y="31" width="680" height="30" as="geometry" />
        </mxCell>
        <mxCell id="EOrD5ygmVr6pdDx3qJXF-83" value="Arquivo" style="text;html=1;align=left;verticalAlign=middle;whiteSpace=wrap;rounded=0;" parent="TvqE10xnxTfYAV_kvAJu-3" vertex="1">
          <mxGeometry x="21" y="31" width="60" height="30" as="geometry" />
        </mxCell>
        <mxCell id="EOrD5ygmVr6pdDx3qJXF-84" value="Desfazer" style="text;html=1;align=left;verticalAlign=middle;whiteSpace=wrap;rounded=0;" parent="TvqE10xnxTfYAV_kvAJu-3" vertex="1">
          <mxGeometry x="156" y="31" width="60" height="30" as="geometry" />
        </mxCell>
        <mxCell id="EOrD5ygmVr6pdDx3qJXF-85" value="Refazer" style="text;html=1;align=left;verticalAlign=middle;whiteSpace=wrap;rounded=0;" parent="TvqE10xnxTfYAV_kvAJu-3" vertex="1">
          <mxGeometry x="231" y="31" width="60" height="30" as="geometry" />
        </mxCell>
        <mxCell id="EOrD5ygmVr6pdDx3qJXF-86" value="" style="rounded=1;whiteSpace=wrap;html=1;" parent="TvqE10xnxTfYAV_kvAJu-3" vertex="1">
          <mxGeometry x="571" y="451" width="80" height="10" as="geometry" />
        </mxCell>
        <mxCell id="EOrD5ygmVr6pdDx3qJXF-87" value="" style="ellipse;whiteSpace=wrap;html=1;fillColor=#CCCCCC;" parent="TvqE10xnxTfYAV_kvAJu-3" vertex="1">
          <mxGeometry x="591" y="451" width="10" height="10" as="geometry" />
        </mxCell>
        <mxCell id="EOrD5ygmVr6pdDx3qJXF-88" value="" style="html=1;whiteSpace=wrap;aspect=fixed;shape=isoRectangle;fillColor=none;strokeColor=#D1D1D1;" parent="TvqE10xnxTfYAV_kvAJu-3" vertex="1">
          <mxGeometry x="565" y="9" width="20" height="12" as="geometry" />
        </mxCell>
        <mxCell id="EOrD5ygmVr6pdDx3qJXF-89" value="" style="html=1;whiteSpace=wrap;aspect=fixed;shape=isoRectangle;fillColor=none;strokeColor=#D1D1D1;" parent="TvqE10xnxTfYAV_kvAJu-3" vertex="1">
          <mxGeometry x="605" y="9" width="20" height="12" as="geometry" />
        </mxCell>
        <mxCell id="EOrD5ygmVr6pdDx3qJXF-90" value="" style="html=1;whiteSpace=wrap;aspect=fixed;shape=isoRectangle;fillColor=none;strokeColor=#D1D1D1;" parent="TvqE10xnxTfYAV_kvAJu-3" vertex="1">
          <mxGeometry x="645" y="9" width="20" height="12" as="geometry" />
        </mxCell>
        <mxCell id="EOrD5ygmVr6pdDx3qJXF-91" value="Salvar" style="text;html=1;align=left;verticalAlign=middle;whiteSpace=wrap;rounded=0;" parent="TvqE10xnxTfYAV_kvAJu-3" vertex="1">
          <mxGeometry x="87" y="31" width="60" height="30" as="geometry" />
        </mxCell>
        <mxCell id="EOrD5ygmVr6pdDx3qJXF-94" value="100%" style="text;html=1;align=left;verticalAlign=middle;whiteSpace=wrap;rounded=0;" parent="TvqE10xnxTfYAV_kvAJu-3" vertex="1">
          <mxGeometry x="516" y="441" width="30" height="30" as="geometry" />
        </mxCell>
        <mxCell id="EOrD5ygmVr6pdDx3qJXF-125" value="" style="rounded=0;whiteSpace=wrap;html=1;fontColor=#C3C3C3;fillColor=#D1D1D1;strokeColor=none;" parent="TvqE10xnxTfYAV_kvAJu-3" vertex="1">
          <mxGeometry x="241" y="157" width="49" height="20" as="geometry" />
        </mxCell>
        <mxCell id="EOrD5ygmVr6pdDx3qJXF-79" value="&lt;h1 style=&quot;margin-top: 0px;&quot;&gt;&lt;p style=&quot;margin: 0px 0px 15px; padding: 0px; text-align: justify; font-family: &amp;quot;Open Sans&amp;quot;, Arial, sans-serif; font-weight: 400;&quot;&gt;Lorem ipsum dolor sit amet, consectetur adipiscing elit. Aenean magna metus, placerat sed risus a, euismod hendrerit nisi. Aliquam dictum id tellus sed feugiat. Duis ultricies nulla id convallis molestie. Donec blandit nibh vitae arcu mattis, nec consectetur felis cursus. Mauris vehicula diam lacinia, dictum mauris vel, pharetra eros. Nullam pretium tristique nunc non sodales. Nullam scelerisque rutrum ipsum non pharetra. Fusce dignissim augue et mi molestie, et mattis lacus dapibus.&lt;/p&gt;&lt;p style=&quot;margin: 0px 0px 15px; padding: 0px; text-align: justify; font-family: &amp;quot;Open Sans&amp;quot;, Arial, sans-serif; font-weight: 400;&quot;&gt;Donec malesuada porttitor nulla, eget luctus lacus dignissim a. Curabitur ut arcu ac ex interdum mollis. Aliquam vestibulum pharetra libero a semper. Praesent malesuada dignissim euismod.&lt;/p&gt;&lt;p style=&quot;margin: 0px 0px 15px; padding: 0px; text-align: justify; font-family: &amp;quot;Open Sans&amp;quot;, Arial, sans-serif; font-weight: 400;&quot;&gt;Proin pretium nisl vel ante fringilla ornare. Vestibulum eu iaculis mi, et euismod lectus. Phasellus nisl erat, dictum sit amet volutpat in, convallis nec orci. Phasellus velit risus, elementum non erat id, eleifend porttitor dolor. Proin porta risus nec mi scelerisque, ac dignissim nunc mattis.&lt;/p&gt;&lt;/h1&gt;" style="text;html=1;whiteSpace=wrap;overflow=hidden;rounded=0;fontSize=8;fillColor=none;labelBackgroundColor=none;" parent="TvqE10xnxTfYAV_kvAJu-3" vertex="1">
          <mxGeometry x="25" y="92" width="630" height="327" as="geometry" />
        </mxCell>
        <mxCell id="EOrD5ygmVr6pdDx3qJXF-95" value="-" style="text;html=1;align=left;verticalAlign=middle;whiteSpace=wrap;rounded=0;" parent="TvqE10xnxTfYAV_kvAJu-3" vertex="1">
          <mxGeometry x="556" y="441" width="10" height="30" as="geometry" />
        </mxCell>
        <mxCell id="EOrD5ygmVr6pdDx3qJXF-96" value="+" style="text;html=1;align=left;verticalAlign=middle;whiteSpace=wrap;rounded=0;" parent="TvqE10xnxTfYAV_kvAJu-3" vertex="1">
          <mxGeometry x="656" y="441" width="10" height="30" as="geometry" />
        </mxCell>
        <mxCell id="EOrD5ygmVr6pdDx3qJXF-97" value="Pesquisar" style="text;html=1;align=left;verticalAlign=middle;whiteSpace=wrap;rounded=0;" parent="TvqE10xnxTfYAV_kvAJu-3" vertex="1">
          <mxGeometry x="301" y="31" width="60" height="30" as="geometry" />
        </mxCell>
        <mxCell id="EOrD5ygmVr6pdDx3qJXF-111" value="" style="group" parent="TvqE10xnxTfYAV_kvAJu-3" vertex="1" connectable="0">
          <mxGeometry x="179" y="441" width="250" height="30" as="geometry" />
        </mxCell>
        <mxCell id="EOrD5ygmVr6pdDx3qJXF-112" value="Correspondências: 1/1" style="text;html=1;align=left;verticalAlign=middle;rounded=0;fontColor=default;" parent="EOrD5ygmVr6pdDx3qJXF-111" vertex="1">
          <mxGeometry width="120" height="30" as="geometry" />
        </mxCell>
        <mxCell id="EOrD5ygmVr6pdDx3qJXF-113" value="Anterior" style="text;html=1;align=left;verticalAlign=middle;whiteSpace=wrap;rounded=0;fontColor=default;" parent="EOrD5ygmVr6pdDx3qJXF-111" vertex="1">
          <mxGeometry x="139" width="60" height="30" as="geometry" />
        </mxCell>
        <mxCell id="EOrD5ygmVr6pdDx3qJXF-114" value="Próxima" style="text;html=1;align=left;verticalAlign=middle;whiteSpace=wrap;rounded=0;fontColor=default;" parent="EOrD5ygmVr6pdDx3qJXF-111" vertex="1">
          <mxGeometry x="200" width="60" height="30" as="geometry" />
        </mxCell>
        <mxCell id="EOrD5ygmVr6pdDx3qJXF-122" value="" style="group" parent="TvqE10xnxTfYAV_kvAJu-3" vertex="1" connectable="0">
          <mxGeometry x="20" y="441" width="149" height="30" as="geometry" />
        </mxCell>
        <mxCell id="EOrD5ygmVr6pdDx3qJXF-123" value="Linhas: 15" style="text;html=1;align=left;verticalAlign=middle;whiteSpace=wrap;rounded=0;" parent="EOrD5ygmVr6pdDx3qJXF-122" vertex="1">
          <mxGeometry width="60" height="30" as="geometry" />
        </mxCell>
        <mxCell id="EOrD5ygmVr6pdDx3qJXF-124" value="Palavras: 122" style="text;html=1;align=left;verticalAlign=middle;whiteSpace=wrap;rounded=0;" parent="EOrD5ygmVr6pdDx3qJXF-122" vertex="1">
          <mxGeometry x="69" width="80" height="30" as="geometry" />
        </mxCell>
      </root>
    </mxGraphModel>
  </diagram>
</mxfile>
